<svg version="1.0" xmlns="http://www.w3.org/2000/svg" width="900.000000pt" height="387.000000pt" viewBox="0 0 900.000000 387.000000" preserveAspectRatio="xMidYMid meet">  
    <g transform="translate(0.000000,387.000000) scale(0.100000,-0.100000)" fill="#ffffff" stroke="none">
        <!-- Hummingbird Body -->
        <path d="M3380 3707 c0 -35 -7 -86 -15 -113 -8 -27 -15 -63 -15 -81 0 -17 -5 -44 -11 -60 -6 -15 -15 -53 -19 -83 -12 -83 -30 -169 -48 -228 l-17 -53 25 -19 c14 -11 34 -20 45 -22 20 -3 20 -12 23 -387 l2 -384 198 -205 c108 -113 233 -242 277 -288 l80 -83 112 14 c98 13 117 12 147 0 20 -8 46 -15 59 -15 43 0 97 -29 108 -58 26 -63 50 -111 64 -122 22 -18 18 -37 -11 -63 -15 -12 -70 -66 -123 -121 -53 -54 -130 -132 -171 -174 -70 -70 -83 -87 -110 -137 -6 -11 -18 -32 -28 -47 -9 -14 -51 -81 -92 -148 -41 -66 -83 -133 -92 -148 -10 -15 -22 -36 -28 -47 -6 -11 -19 -33 -30 -50 -11 -16 -24 -39 -30 -50 -11 -22 -37 -43 -47 -35 -7 7 -24 111 -24 126 0 7 -4 14 -9 17 -4 2 -13 19 -19 39 -5 20 -20 56 -34 79 -24 42 -37 109 -30 172 9 77 27 107 42 64 7 -21 32 -22 39 -2 3 10 17 27 31 37 19 14 24 23 20 42 -2 11 -13 23 -25 27 -11 4 -31 14 -45 21 -29 14 -81 20 -120 16z"/>

        <!-- Hummingbird Wing -->
        <path d="M5413 2013 c9 -2 25 -2 35 0 9 3 1 5 -18 5 -19 0 -27 -2 -17 -5z"/>
        
        <!-- Hummingbird Detail -->
        <path d="M4250 820 c-25 -8 -25 -8 5 -11 43 -3 68 0 79 11 12 12 -47 12 -84 0z"/>
    </g>
</svg>